<svg aria-hidden="true" style="position: absolute; width: 0; height: 0; overflow: hidden;" version="1.1" xmlns="http://www.w3.org/2000/svg" xmlns:xlink="http://www.w3.org/1999/xlink">
<defs>
<symbol id="icon-ArrowRight" viewBox="0 0 75 32">
<path d="M0 21.333v-10.667h58.667v-10.667l16 16-16 16v-10.667h-58.667z"></path>
</symbol>
<symbol id="icon-ArrowLeft" viewBox="0 0 75 32">
<path d="M74.667 10.667v10.667h-58.667v10.667l-16-16 16-16v10.667h58.667z"></path>
</symbol>
    <symbol id="icon-bowls-and-cups" viewBox="0 0 32 32">
        <path fill="#f1cdb3" d="M31.992 21.256l-1.525-10.245c-0.025-2.976-1.83-5.734-4.965-7.577-2.595-1.526-5.97-2.367-9.501-2.367s-6.906 0.841-9.502 2.367c-3.134 1.843-4.94 4.602-4.965 7.577l-1.525 10.246c-0.005 0.036-0.007 0.071-0.007 0.107 0 3.013 2.008 5.803 5.508 7.654 2.866 1.516 6.592 2.351 10.492 2.351s7.626-0.835 10.492-2.351c3.5-1.852 5.508-4.642 5.508-7.654 0-0.036-0.003-0.071-0.008-0.107zM7.236 4.688c2.375-1.397 5.488-2.166 8.764-2.166s6.388 0.769 8.764 2.165c2.7 1.588 4.249 3.915 4.249 6.384 0 2.47-1.548 4.797-4.249 6.384-2.376 1.397-5.488 2.166-8.764 2.166s-6.389-0.769-8.764-2.166c-2.7-1.587-4.249-3.915-4.249-6.384s1.548-4.797 4.249-6.384zM25.811 27.731c-2.66 1.407-6.145 2.182-9.811 2.182s-7.151-0.775-9.811-2.182c-2.987-1.58-4.709-3.879-4.733-6.316l1.002-6.73c0.834 1.561 2.211 2.949 4.041 4.026 2.596 1.526 5.971 2.367 9.502 2.367s6.906-0.841 9.502-2.367c1.83-1.076 3.206-2.465 4.041-4.026l1.002 6.731c-0.025 2.436-1.747 4.736-4.733 6.316z"></path>
        <path fill="#f1cdb3" d="M16 18.166c4.988 0 9.391-1.931 10.955-4.803 0.4-0.734 0.603-1.506 0.603-2.292 0-1.969-1.253-3.791-3.531-5.13-2.155-1.267-5.006-1.965-8.027-1.965s-5.871 0.698-8.027 1.965c-2.277 1.339-3.531 3.161-3.531 5.13 0 0.787 0.203 1.557 0.603 2.291 1.564 2.873 5.966 4.803 10.955 4.803zM16 16.711c-4.184 0-7.985-1.503-9.463-3.697 1.479-2.193 5.28-3.695 9.463-3.695s7.985 1.502 9.464 3.695c-1.478 2.194-5.28 3.697-9.464 3.697zM5.898 11.072c0-1.433 0.999-2.809 2.813-3.875 1.935-1.138 4.524-1.764 7.289-1.764s5.354 0.626 7.289 1.764c1.814 1.067 2.813 2.443 2.813 3.875 0 0.128-0.009 0.255-0.025 0.382-2.007-2.19-5.829-3.59-10.078-3.59s-8.071 1.4-10.078 3.59c-0.015-0.114-0.024-0.247-0.025-0.382v-0zM16 22.277c-0.207 0-0.394 0.086-0.526 0.225l-0 0c-0.474 0.497-2.020 2.211-2.020 3.413 0.002 1.406 1.141 2.545 2.547 2.547h0c1.406-0.002 2.545-1.141 2.547-2.547v-0c0-1.203-1.547-2.916-2.020-3.413-0.133-0.139-0.32-0.225-0.526-0.225h-0zM16 27.007c-0.602-0.001-1.090-0.489-1.091-1.091v-0c0-0.323 0.508-1.104 1.091-1.812 0.583 0.709 1.092 1.489 1.092 1.812-0.001 0.602-0.489 1.091-1.092 1.091h-0z"></path>
        <path fill="#f1cdb3" d="M12.738 12.746h-0.224c-0.402 0-0.727 0.326-0.727 0.727s0.326 0.727 0.727 0.727v0h0.224c0.402 0 0.727-0.326 0.727-0.727s-0.326-0.727-0.727-0.727v0zM21.373 12.746h-5.19c-0.402 0-0.727 0.326-0.727 0.727s0.326 0.727 0.727 0.727v0h5.19c0.402 0 0.727-0.326 0.727-0.727s-0.326-0.727-0.727-0.727v0z"></path>
    </symbol>
    <symbol id="icon-collars-leashes" viewBox="0 0 32 32">
        <path fill="#f1cdb3" d="M30.558 5.467c-0.832-0.669-2.004-1.264-3.485-1.768-2.967-1.010-6.9-1.566-11.073-1.566s-8.107 0.556-11.073 1.566c-1.482 0.504-2.654 1.099-3.485 1.768-0.957 0.77-1.442 1.619-1.442 2.524v6.995c0 0.905 0.485 1.754 1.442 2.524 0.831 0.669 2.004 1.264 3.485 1.768 2.819 0.959 6.508 1.508 10.448 1.561v2.508h-2.155c-0.249-1.271-1.354-2.217-2.679-2.219h-0c-1.505 0.002-2.725 1.221-2.727 2.726v0c0 0.654 0.232 1.273 0.642 1.758-0.399 0.47-0.642 1.084-0.642 1.755 0 0.001 0 0.002 0 0.003v-0c0.002 1.505 1.222 2.725 2.727 2.727h0c1.326-0.002 2.43-0.948 2.677-2.201l0.003-0.017h5.561c0.249 1.271 1.354 2.217 2.679 2.219h0c1.505-0.002 2.725-1.222 2.727-2.727v-0c0-0.001 0-0.002 0-0.003 0-0.671-0.243-1.285-0.645-1.759l0.003 0.004c0.399-0.47 0.642-1.084 0.642-1.755 0-0.001 0-0.003 0-0.004v0c-0.002-1.505-1.222-2.725-2.727-2.726h-0c-1.326 0.002-2.43 0.948-2.677 2.201l-0.003 0.017h-2.155v-2.508c3.94-0.053 7.629-0.602 10.448-1.561 1.482-0.505 2.654-1.099 3.485-1.768 0.957-0.77 1.442-1.619 1.442-2.524v-6.995c0-0.905-0.485-1.754-1.442-2.524zM19.361 24.597c0.345-0 0.625-0.28 0.625-0.625 0-0.012-0-0.024-0.001-0.036l0 0.002c-0.001-0.024-0.002-0.052-0.002-0.081 0-0.816 0.661-1.478 1.477-1.478h0c0.815 0.001 1.476 0.661 1.477 1.477v0c0 0.499-0.251 0.961-0.669 1.235-0.171 0.113-0.282 0.305-0.282 0.523s0.111 0.409 0.28 0.521l0.002 0.001c0.405 0.267 0.668 0.72 0.668 1.235 0 0 0 0 0 0.001v-0c-0.001 0.816-0.662 1.477-1.477 1.477h-0c-0.816-0.001-1.476-0.663-1.476-1.478 0-0.029 0.001-0.057 0.002-0.085l-0 0.004c0.001-0.010 0.001-0.022 0.001-0.034 0-0.345-0.28-0.625-0.625-0.626h-6.722c-0.345 0-0.625 0.28-0.625 0.626 0 0.012 0 0.024 0.001 0.035l-0-0.002c0.001 0.024 0.002 0.052 0.002 0.081 0 0.816-0.661 1.478-1.477 1.478h-0c-0.815-0.001-1.476-0.661-1.477-1.476v-0c0-0.499 0.25-0.961 0.669-1.236 0.171-0.113 0.283-0.305 0.283-0.523s-0.111-0.409-0.28-0.521l-0.002-0.001c-0.405-0.267-0.669-0.72-0.669-1.235 0-0 0-0 0-0.001v0c0.001-0.816 0.662-1.477 1.477-1.477h0c0.816 0.001 1.476 0.663 1.476 1.478 0 0.029-0.001 0.057-0.002 0.085l0-0.004c-0.001 0.010-0.001 0.022-0.001 0.035 0 0.345 0.28 0.625 0.625 0.625 0 0 0 0 0 0h6.723zM16 19.595c-0.831-0.001-1.505-0.674-1.506-1.506v-0c0.001-0.831 0.674-1.505 1.505-1.506h0c0.831 0.001 1.504 0.675 1.505 1.506v0c-0.001 0.831-0.674 1.504-1.505 1.505h-0zM30.75 14.987c0 1.978-4.988 4.16-12.405 4.547 0.258-0.41 0.412-0.909 0.412-1.444 0-0.204-0.022-0.402-0.064-0.594l0.003 0.018c2.426-0.159 4.679-0.521 6.558-1.058 0.264-0.077 0.453-0.317 0.453-0.601 0-0.345-0.28-0.625-0.625-0.625-0.061 0-0.12 0.009-0.176 0.025l0.004-0.001c-1.929 0.55-4.281 0.909-6.819 1.043-0.507-0.592-1.256-0.965-2.092-0.965-0.84 0-1.592 0.377-2.096 0.97l-0.003 0.004c-1.719-0.082-3.355-0.266-4.86-0.549-0.035-0.007-0.075-0.011-0.115-0.011-0.345 0-0.625 0.28-0.625 0.625 0 0.304 0.218 0.558 0.506 0.614l0.004 0.001c1.404 0.264 2.912 0.445 4.493 0.54-0.037 0.168-0.058 0.362-0.058 0.56 0 0.535 0.153 1.035 0.417 1.458l-0.007-0.012c-7.418-0.387-12.405-2.57-12.405-4.547v-4.632l0.009 0.007c0.13 0.114 0.273 0.228 0.421 0.336l0.017 0.012 0.002 0.001c0.046 0.034 0.094 0.068 0.142 0.101l0.021 0.015c0.046 0.031 0.092 0.062 0.139 0.093l0.029 0.019c0.048 0.031 0.096 0.062 0.145 0.092l0.021 0.013c0.738 0.457 1.652 0.872 2.731 1.239 2.966 1.009 6.899 1.565 11.073 1.565s8.106-0.556 11.073-1.566c1.078-0.367 1.992-0.782 2.731-1.239l0.021-0.013 0.145-0.093 0.028-0.019c0.047-0.031 0.093-0.062 0.139-0.093l0.022-0.015c0.049-0.034 0.096-0.067 0.143-0.101l0.001-0.001c0.166-0.121 0.309-0.235 0.447-0.355l0 0v4.632zM4.015 10.589c0.545-0.249 1.289-0.534 2.279-0.812 2.69-0.754 6.137-1.169 9.706-1.169s7.015 0.415 9.705 1.169c0.99 0.277 1.735 0.563 2.279 0.812-2.587 1.153-6.82 2.010-11.984 2.010s-9.398-0.857-11.984-2.010zM30.746 8.082c-0.003 0.042-0.008 0.080-0.014 0.117l0.001-0.007-0.001 0.005c-0.013 0.075-0.030 0.141-0.052 0.204l0.003-0.009-0.005 0.016c-0.017 0.051-0.033 0.089-0.050 0.127l0.004-0.010c-0.006 0.015-0.014 0.030-0.021 0.045-0.019 0.040-0.034 0.070-0.050 0.099l0.004-0.009-0.004 0.008c-0.26 0.469-0.751 0.88-1.239 1.2-0.647-0.373-1.685-0.849-3.279-1.296-2.796-0.784-6.363-1.215-10.043-1.215s-7.246 0.432-10.043 1.216c-1.594 0.446-2.632 0.923-3.279 1.296-0.487-0.321-0.978-0.731-1.238-1.201l-0.004-0.008c-0.011-0.020-0.027-0.050-0.041-0.080l-0.005-0.011-0.021-0.045c-0.013-0.028-0.028-0.067-0.042-0.106l-0.003-0.011-0.005-0.016c-0.019-0.054-0.036-0.119-0.048-0.186l-0.001-0.008-0.001-0.005c-0.011-0.060-0.017-0.13-0.017-0.201v-0c0-2.179 6.058-4.608 14.75-4.608s14.75 2.429 14.75 4.608c0 0.030-0.002 0.061-0.004 0.092z"></path>
        <path fill="#f1cdb3" d="M25.694 6.21c-0.035-0.166-0.131-0.306-0.263-0.396l-0.002-0.001c-0.098-0.066-0.219-0.105-0.349-0.105-0.043 0-0.084 0.004-0.125 0.012l0.004-0.001c-0.126 0.027-0.235 0.087-0.32 0.171l0-0c-0.113 0.114-0.182 0.271-0.182 0.444 0 0.043 0.004 0.084 0.012 0.124l-0.001-0.004c0.026 0.126 0.086 0.235 0.171 0.32l-0-0c0.057 0.055 0.125 0.101 0.199 0.133l0.004 0.002c0.071 0.030 0.153 0.047 0.24 0.048h0c0 0 0 0 0.001 0 0.086 0 0.168-0.018 0.242-0.050l-0.004 0.002c0.078-0.034 0.146-0.079 0.203-0.135l-0 0c0.113-0.114 0.182-0.271 0.182-0.444 0-0.043-0.004-0.084-0.012-0.125l0.001 0.004zM23.191 5.259c-2.153-0.405-4.604-0.619-7.088-0.619-3.437 0-6.76 0.407-9.356 1.149-0.261 0.079-0.449 0.317-0.449 0.6 0 0.345 0.28 0.625 0.625 0.625 0.059 0 0.117-0.008 0.171-0.024l-0.004 0.001c2.488-0.71 5.689-1.101 9.013-1.101 2.407 0 4.779 0.207 6.857 0.598 0.030 0.005 0.065 0.008 0.101 0.008 0.345 0 0.625-0.28 0.625-0.625 0-0.299-0.21-0.549-0.491-0.611l-0.004-0.001zM7.531 15.792c-0.018-0.085-0.050-0.161-0.095-0.228l0.002 0.002c-0.047-0.069-0.104-0.127-0.171-0.172l-0.002-0.001c-0.097-0.065-0.217-0.103-0.346-0.103-0.173 0-0.329 0.069-0.443 0.182l0-0c-0.057 0.056-0.103 0.124-0.133 0.199l-0.001 0.004c-0.030 0.071-0.047 0.153-0.048 0.239v0c0.002 0.215 0.11 0.405 0.276 0.518l0.002 0.001c0.034 0.023 0.070 0.043 0.108 0.058 0.071 0.031 0.153 0.049 0.24 0.049 0.129 0 0.249-0.040 0.347-0.108l-0.002 0.001c0.102-0.068 0.182-0.164 0.229-0.276l0.002-0.004c0.030-0.070 0.048-0.152 0.048-0.238 0-0.043-0.004-0.085-0.013-0.126l0.001 0.004z"></path>
    </symbol>
    <symbol id="icon-medicines" viewBox="0 0 32 32">
        <path fill="#f1cdb3" d="M31.817 8.479l-8.296-8.297c-0.113-0.113-0.269-0.183-0.442-0.183s-0.329 0.070-0.442 0.183l-2.21 2.209c-0.113 0.113-0.183 0.269-0.183 0.442s0.070 0.329 0.183 0.442l2.625 2.624-2.484 2.485-3.825-3.825c-0.113-0.113-0.269-0.183-0.442-0.183s-0.329 0.070-0.442 0.183l-2.538 2.538c-0.113 0.113-0.183 0.269-0.183 0.442s0.070 0.329 0.183 0.442l0.806 0.806-10.359 10.359c-0.441 0.442-0.714 1.052-0.714 1.726s0.273 1.284 0.714 1.726l0.795 0.795-1.458 1.459c-0.113 0.113-0.183 0.269-0.183 0.442s0.070 0.329 0.183 0.442l1.136 1.136-4.058 4.059c-0.102 0.111-0.165 0.26-0.165 0.423 0 0.345 0.28 0.625 0.625 0.625 0.163 0 0.312-0.063 0.423-0.165l-0 0 4.059-4.059 1.137 1.137c0.113 0.113 0.269 0.183 0.442 0.183s0.329-0.070 0.442-0.183l1.459-1.459 0.795 0.796c0.439 0.441 1.047 0.715 1.719 0.715 0.003 0 0.005 0 0.008 0h-0c0.002 0 0.005 0 0.007 0 0.672 0 1.28-0.273 1.719-0.715l10.359-10.359 0.806 0.805c0.113 0.114 0.269 0.184 0.442 0.184s0.329-0.070 0.442-0.184l2.538-2.537c0.113-0.113 0.183-0.269 0.183-0.442s-0.070-0.329-0.183-0.442l-3.825-3.824 2.485-2.485 2.624 2.625c0.113 0.114 0.269 0.184 0.442 0.184s0.329-0.070 0.442-0.184l2.209-2.209c0.244-0.244 0.244-0.64 0-0.884zM13.193 11.491l2.892 2.892c0.113 0.113 0.269 0.183 0.441 0.183 0 0 0 0 0.001 0h-0c0.345-0 0.625-0.28 0.625-0.625 0-0.172-0.070-0.329-0.183-0.442v0l-2.892-2.892 0.934-0.935 5.381 5.381-2.859 2.858-5.38-5.38 1.040-1.040zM6.704 27.569l-2.273-2.273 1.017-1.016 2.273 2.273-1.016 1.017zM11.968 27.348c-0.464 0.465-1.22 0.465-1.685 0l-5.631-5.63c-0.215-0.216-0.348-0.514-0.348-0.843s0.133-0.627 0.348-0.843l0.891-0.89 1.539 1.539c0.113 0.114 0.269 0.184 0.442 0.184s0.329-0.070 0.442-0.184l0-0c0.244-0.244 0.244-0.64 0-0.884l-1.539-1.539 1.028-1.029 2.892 2.892c0.113 0.114 0.269 0.184 0.442 0.184s0.329-0.070 0.442-0.184l0-0c0.244-0.244 0.244-0.64 0-0.884l-2.892-2.891 1.029-1.029 1.539 1.539c0.113 0.114 0.269 0.184 0.442 0.184s0.329-0.070 0.442-0.184l0-0c0.244-0.244 0.244-0.64 0-0.884l-1.539-1.539 1.018-1.018 5.381 5.381-4.065 4.064c-0.113 0.113-0.183 0.269-0.183 0.442 0 0.345 0.28 0.625 0.625 0.625 0.173 0 0.329-0.070 0.442-0.183l4.065-4.064 1.052 1.051-6.617 6.617zM19.469 19.847l-1.052-1.052 2.859-2.859 1.051 1.052-2.858 2.859zM26.113 15.699l-1.654 1.653-9.812-9.811 1.653-1.654 9.813 9.812zM22.73 10.549l-1.279-1.279 2.485-2.485 1.279 1.279-2.484 2.485zM29.165 10.246l-7.412-7.412 1.326-1.325 7.412 7.412-1.326 1.325z"></path>
        <path fill="#f1cdb3" d="M11.902 24.917c-0.041-0.208-0.182-0.376-0.369-0.453l-0.004-0.002c-0.071-0.030-0.153-0.047-0.239-0.047-0.043 0-0.085 0.004-0.126 0.013l0.004-0.001c-0.207 0.043-0.374 0.183-0.454 0.369l-0.002 0.004c-0.031 0.071-0.049 0.154-0.049 0.241 0 0.172 0.070 0.328 0.184 0.439l0 0c0.112 0.113 0.267 0.183 0.439 0.183 0.001 0 0.003 0 0.004 0h-0c0.002 0 0.003 0 0.005 0 0.257 0 0.478-0.158 0.571-0.382l0.002-0.004c0.030-0.070 0.048-0.152 0.048-0.237 0-0.001 0-0.002 0-0.002v0c-0-0.043-0.005-0.085-0.014-0.126l0.001 0.004z"></path>
    </symbol>
    <symbol id="icon-pet-food" viewBox="0 0 32 32">
        <path fill="#f1cdb3" d="M28.212 13.599l-3.069-8.4v-4.437c0-0.42-0.341-0.762-0.762-0.762h-16.762c-0.421 0-0.762 0.341-0.762 0.762v4.436l-3.069 8.4c-0.348 0.922-0.549 1.988-0.549 3.1 0 0.002 0 0.005 0 0.007v-0 12.669c0.002 1.449 1.176 2.623 2.625 2.626h20.272c1.449-0.002 2.624-1.176 2.626-2.625v-12.67c0-1.063-0.185-2.108-0.549-3.106zM8.381 1.524h15.238v3.046h-15.238v-3.047zM27.238 26.737h-10.755c-0.412 0.011-0.742 0.348-0.742 0.762s0.33 0.751 0.741 0.762l0.001 0h10.754v1.113c0 0.608-0.494 1.102-1.102 1.102h-20.272c-0.608-0.001-1.101-0.494-1.102-1.102v-12.669c-0.001-0.881 0.154-1.756 0.457-2.583l2.933-8.027h15.696l2.933 8.027c0.302 0.828 0.457 1.702 0.457 2.583v10.032z"></path>
        <path fill="#f1cdb3" d="M18.996 18.029c-0.261-1.572-1.609-2.757-3.235-2.759h-0c-1.626 0.002-2.975 1.187-3.233 2.74l-0.003 0.019c-1.203 0.508-2.032 1.679-2.032 3.043 0 0.085 0.003 0.17 0.010 0.254l-0.001-0.011c0.121 1.599 1.419 2.894 3.018 3.013 0.074 0.006 0.16 0.009 0.248 0.009 0.558 0 1.084-0.14 1.544-0.386l-0.018 0.009c0.135-0.074 0.295-0.117 0.466-0.117s0.332 0.044 0.472 0.12l-0.005-0.003c0.442 0.238 0.967 0.377 1.524 0.377 0.088 0 0.175-0.003 0.261-0.010l-0.011 0.001c1.599-0.119 2.897-1.414 3.018-3.013 0.006-0.073 0.009-0.158 0.009-0.243 0-1.364-0.829-2.534-2.011-3.035l-0.022-0.008zM19.5 21.199c-0.072 0.859-0.752 1.539-1.605 1.609l-0.006 0c-0.041 0.003-0.088 0.005-0.136 0.005-0.298 0-0.578-0.074-0.824-0.206l0.009 0.005c-0.341-0.184-0.747-0.292-1.178-0.292s-0.836 0.108-1.191 0.298l0.013-0.007c-0.236 0.127-0.517 0.201-0.815 0.201-0.048 0-0.095-0.002-0.142-0.006l0.006 0c-0.859-0.070-1.54-0.75-1.611-1.603l-0-0.006c-0.003-0.040-0.005-0.086-0.005-0.132 0-0.84 0.589-1.543 1.377-1.718l0.012-0.002c0.348-0.075 0.605-0.38 0.605-0.745 0-0.006-0-0.011-0-0.017v0.001l-0.001-0.038c0.001-0.967 0.785-1.751 1.752-1.753h0c0.967 0.001 1.75 0.783 1.753 1.749v0l-0.001 0.042c-0 0.005-0 0.011-0 0.016 0 0.365 0.257 0.67 0.6 0.744l0.005 0.001c0.799 0.177 1.388 0.88 1.388 1.72 0 0.047-0.002 0.093-0.005 0.139l0-0.006zM15.76 13.747c1.367-0.002 2.475-1.109 2.476-2.476v-0c-0.002-1.367-1.109-2.474-2.476-2.476h-0c-1.367 0.002-2.475 1.109-2.476 2.476v0c0.002 1.367 1.109 2.475 2.476 2.476h0zM15.76 10.318c0.525 0 0.953 0.427 0.953 0.952s-0.427 0.953-0.952 0.953c-0.526-0.001-0.952-0.427-0.953-0.952v-0c0-0.525 0.427-0.953 0.953-0.953zM12.903 14.217c-0.002-1.367-1.109-2.475-2.476-2.476h-0c-1.367 0.002-2.475 1.109-2.476 2.476v0c0.001 1.367 1.109 2.475 2.476 2.477h0c1.367-0.002 2.475-1.109 2.476-2.476v-0zM10.427 15.169c-0.526-0.001-0.952-0.427-0.953-0.952v-0c0-0.525 0.427-0.953 0.953-0.953 0.525 0 0.952 0.427 0.952 0.953s-0.427 0.953-0.952 0.953zM21.093 11.74c-1.367 0.002-2.474 1.109-2.476 2.476v0c0.002 1.367 1.109 2.475 2.476 2.476h0c1.367-0.002 2.474-1.109 2.476-2.476v-0c-0.002-1.367-1.109-2.474-2.476-2.476h-0zM21.093 15.169c-0.526-0.001-0.951-0.427-0.952-0.952v-0c0-0.525 0.427-0.953 0.953-0.953 0.525 0 0.952 0.427 0.952 0.953s-0.427 0.953-0.952 0.953zM13.17 26.737h-0.185c-0.412 0.011-0.742 0.348-0.742 0.762s0.33 0.751 0.741 0.762l0.001 0h0.185c0.412-0.011 0.742-0.348 0.742-0.762s-0.33-0.751-0.741-0.762l-0.001-0z"></path>
    </symbol>
    <symbol id="icon-shampoos" viewBox="0 0 32 32">
        <path fill="#f1cdb3" d="M19.803 9.163v-2.902c0-0.384-0.311-0.695-0.695-0.695h-0.522v-4.869c0-0.386-0.311-0.697-0.696-0.697h-4.522c-0.384 0-0.695 0.311-0.695 0.695v4.869h-0.522c-0.384 0-0.695 0.312-0.695 0.696v2.902c-2.443 0.974-4.174 3.364-4.174 6.15v15.991c0 0.384 0.311 0.695 0.695 0.695h15.305c0.384 0 0.695-0.311 0.695-0.695v-15.991c0-2.786-1.731-5.175-4.174-6.149zM14.064 1.392h3.13v4.174h-3.131v-4.174zM12.846 6.957h5.564v1.739h-5.564v-1.739zM22.585 30.609h-13.912v-15.296c0-2.882 2.345-5.226 5.226-5.226h3.461c2.882 0 5.226 2.345 5.226 5.227v15.294z"></path>
        <path fill="#f1cdb3" d="M20.15 14.609h-9.043c-0.384 0-0.695 0.311-0.695 0.696v12.869c0 0.384 0.311 0.695 0.695 0.695h9.043c0.384 0 0.696-0.311 0.696-0.695v-4.372c0-0.384-0.311-0.696-0.696-0.696s-0.696 0.311-0.696 0.696v0 3.676h-7.652v-11.478h7.652v2.202c0 0.384 0.311 0.696 0.696 0.696s0.696-0.311 0.696-0.696v0-2.898c0-0.384-0.311-0.696-0.696-0.696z"></path>
        <path fill="#f1cdb3" d="M20.15 20.301c-0.384 0-0.695 0.311-0.695 0.695v0.069c0 0.384 0.311 0.696 0.696 0.696s0.696-0.311 0.696-0.696v0-0.069c0-0.384-0.311-0.695-0.696-0.695zM14.929 21.947c-1.152 0.001-2.086 0.935-2.087 2.087v0c0.001 1.152 0.935 2.086 2.087 2.087h0c1.152-0.001 2.086-0.935 2.087-2.087v-0c-0.001-1.152-0.935-2.086-2.087-2.087h-0zM14.929 24.73c-0.37-0.018-0.663-0.323-0.663-0.696s0.293-0.677 0.662-0.696l0.002-0c0.384 0 0.696 0.312 0.696 0.695s-0.312 0.696-0.696 0.696zM18.585 19.191c-0.001-1.152-0.935-2.086-2.087-2.087h-0c-1.152 0.001-2.086 0.935-2.087 2.087v0c0.001 1.152 0.935 2.086 2.087 2.087h0c1.152-0.001 2.086-0.935 2.087-2.087v-0zM16.498 19.887c-0.37-0.018-0.663-0.323-0.663-0.696s0.293-0.677 0.662-0.696l0.002-0c0.383 0 0.695 0.312 0.695 0.695s-0.312 0.696-0.696 0.696z"></path>
    </symbol>
    <symbol id="icon-sleeping-area" viewBox="0 0 32 32">
        <path fill="#f1cdb3" d="M30.908 10.649l-14.386-10.528c-0.102-0.075-0.23-0.121-0.369-0.121s-0.267 0.045-0.371 0.122l0.002-0.001-14.385 10.528c-0.156 0.115-0.256 0.298-0.256 0.505 0 0.139 0.045 0.267 0.122 0.371l-0.001-0.002 1.881 2.569c0.115 0.156 0.298 0.256 0.504 0.256 0.139 0 0.267-0.045 0.371-0.122l-0.002 0.001 0.567-0.415v17.564c0 0.345 0.28 0.625 0.625 0.625h21.92c0.345 0 0.625-0.28 0.625-0.625v-17.54l0.534 0.391c0.102 0.075 0.23 0.121 0.369 0.121 0.206 0 0.389-0.1 0.503-0.254l0.001-0.002 1.88-2.569c0.075-0.102 0.121-0.23 0.121-0.369 0-0.206-0.1-0.389-0.254-0.503l-0.002-0.001zM26.505 28.313h-14.787c-0.337 0.010-0.607 0.286-0.607 0.625s0.27 0.615 0.606 0.625l0.001 0h14.787v1.188h-20.67v-17.361h14.636c0.345 0 0.625-0.28 0.625-0.625s-0.28-0.625-0.625-0.625h-13.602l9.284-6.795 10.352 7.576v15.392zM28.523 12.849l-12-8.783c-0.102-0.076-0.23-0.121-0.369-0.121s-0.267 0.045-0.371 0.122l0.002-0.001-12.001 8.783-1.142-1.561 13.511-9.889 13.512 9.889-1.142 1.561z"></path>
        <path fill="#f1cdb3" d="M23.336 12.643c-0.018-0.085-0.050-0.161-0.095-0.227l0.002 0.002c-0.114-0.168-0.304-0.277-0.519-0.278h-0c-0.258 0.001-0.48 0.158-0.576 0.382l-0.002 0.004c-0.031 0.071-0.049 0.154-0.049 0.241 0 0.129 0.040 0.249 0.108 0.348l-0.001-0.002c0.046 0.069 0.104 0.127 0.171 0.171l0.002 0.001c0.097 0.066 0.217 0.105 0.346 0.105 0.043 0 0.085-0.004 0.126-0.013l-0.004 0.001c0.249-0.049 0.441-0.242 0.491-0.487l0.001-0.004c0.008-0.037 0.012-0.079 0.012-0.122s-0.004-0.085-0.013-0.126l0.001 0.004zM10.079 28.815c-0.060-0.288-0.312-0.501-0.614-0.501-0.172 0-0.328 0.069-0.441 0.181l0-0c-0.085 0.085-0.145 0.194-0.171 0.316l-0.001 0.004c-0.008 0.038-0.013 0.081-0.013 0.125 0 0.172 0.070 0.327 0.183 0.439l0 0c0.114 0.112 0.27 0.182 0.442 0.183h0c0.215-0.001 0.405-0.11 0.518-0.275l0.001-0.002c0.066-0.098 0.105-0.219 0.105-0.349 0-0.043-0.004-0.084-0.012-0.125l0.001 0.004zM23.917 16.306c0-0.53-0.208-1.027-0.586-1.401-0.359-0.353-0.851-0.572-1.395-0.572-0.004 0-0.008 0-0.012 0h0.001c-0.174 0.002-0.341 0.026-0.501 0.069l0.014-0.003c-1.314 0.34-2.439 0.74-3.516 1.227l0.136-0.055c-0.571-0.141-1.226-0.222-1.901-0.222-0.001 0-0.002 0-0.003 0h0c-0.003 0-0.006 0-0.010 0-0.672 0-1.325 0.081-1.95 0.233l0.056-0.012c-0.947-0.434-2.078-0.836-3.247-1.143l-0.15-0.033c-0.148-0.040-0.317-0.063-0.492-0.063-0.476 0-0.912 0.17-1.251 0.453l0.003-0.003c-0.442 0.361-0.722 0.906-0.722 1.517 0 0.040 0.001 0.080 0.004 0.119l-0-0.005c0.072 1.34 0.255 2.594 0.541 3.81l-0.029-0.146c-0.179 0.444-0.32 0.963-0.397 1.501l-0.004 0.036c-0.029 0.199-0.046 0.429-0.046 0.663v0c0 2.798 2.44 5.074 5.439 5.074h4.514c1.644 0 3.182-0.683 4.22-1.875 0.951-1.092 1.367-2.464 1.173-3.862-0.082-0.575-0.223-1.093-0.418-1.583l0.016 0.046c0.275-1.204 0.446-2.429 0.512-3.662 0.002-0.037 0.003-0.073 0.003-0.109zM22.666 16.345v0.002c-0.073 1.329-0.26 2.573-0.555 3.776l0.029-0.139c-0.031 0.13-0.019 0.267 0.033 0.389 0.18 0.41 0.317 0.886 0.389 1.383l0.004 0.030c0.144 1.035-0.168 2.053-0.878 2.869-0.8 0.919-1.995 1.446-3.276 1.446h-4.514c-2.309 0-4.189-1.715-4.189-3.824 0-0.162 0.012-0.327 0.034-0.491 0.068-0.486 0.2-0.962 0.393-1.413 0.053-0.123 0.064-0.259 0.033-0.389-0.267-1.064-0.455-2.309-0.524-3.585l-0.002-0.052c-0.001-0.012-0.001-0.027-0.001-0.041 0-0.224 0.103-0.424 0.264-0.556l0.001-0.001c0.123-0.103 0.283-0.165 0.458-0.165 0.060 0 0.118 0.007 0.174 0.021l-0.005-0.001 0.012 0.003c1.31 0.338 2.437 0.745 3.513 1.244l-0.126-0.052c0.132 0.060 0.281 0.073 0.421 0.036 0.537-0.149 1.153-0.235 1.789-0.235 0.004 0 0.008 0 0.012 0h-0.001c0.612 0 1.218 0.079 1.801 0.235 0.14 0.037 0.288 0.025 0.42-0.035 0.954-0.449 2.086-0.857 3.258-1.164l0.142-0.031c0.053-0.013 0.108-0.019 0.163-0.020h0.008c0.298 0.002 0.553 0.182 0.664 0.44l0.002 0.005c0.035 0.081 0.056 0.176 0.056 0.276 0 0.014-0 0.028-0.001 0.042l0-0.002z"></path>
        <path fill="#f1cdb3" d="M17.326 23.235c-0.301 0-0.547-0.245-0.547-0.547 0-0.345-0.28-0.625-0.625-0.625s-0.625 0.28-0.625 0.625v0 0.023c0 0.302-0.245 0.547-0.547 0.547-0.345 0-0.625 0.28-0.625 0.625s0.28 0.625 0.625 0.625v0c0.453 0 0.868-0.169 1.185-0.448 0.31 0.264 0.715 0.425 1.158 0.425 0 0 0.001 0 0.001 0h-0c0.345 0 0.625-0.28 0.625-0.625s-0.28-0.625-0.625-0.625v0zM13.969 20.355l-0.928-0.425c-0.076-0.036-0.166-0.057-0.261-0.057s-0.184 0.021-0.264 0.059l0.004-0.002-0.928 0.425c-0.224 0.098-0.377 0.318-0.377 0.574 0 0.345 0.28 0.625 0.625 0.625 0.099 0 0.193-0.023 0.276-0.064l-0.004 0.002 0.668-0.306 0.668 0.306c0.081 0.041 0.176 0.065 0.277 0.065 0.345 0 0.625-0.28 0.625-0.625 0-0.257-0.155-0.478-0.378-0.574l-0.004-0.002zM20.716 20.355l-0.928-0.425c-0.076-0.036-0.166-0.057-0.26-0.057s-0.184 0.021-0.264 0.058l0.004-0.002-0.929 0.425c-0.226 0.097-0.382 0.318-0.382 0.576 0 0.345 0.28 0.625 0.625 0.625 0.101 0 0.196-0.024 0.281-0.066l0.665-0.304 0.668 0.306c0.072 0.031 0.155 0.049 0.243 0.049 0.345 0 0.625-0.28 0.625-0.625 0-0.244-0.14-0.456-0.344-0.559l-0.004-0.002z"></path>
    </symbol>
    <symbol id="icon-toys" viewBox="0 0 32 32">
        <path fill="#f1cdb3" d="M27.314 4.686c-3.022-3.022-7.040-4.686-11.314-4.686s-8.292 1.664-11.314 4.686c-3.022 3.022-4.686 7.040-4.686 11.314s1.664 8.292 4.686 11.314c3.022 3.022 7.040 4.686 11.314 4.686s8.292-1.664 11.314-4.686c3.022-3.022 4.686-7.040 4.686-11.314s-1.664-8.292-4.686-11.314zM5.67 26.33c-2.521-2.521-4.006-5.801-4.244-9.325 0.382 0.013 0.772 0.050 1.167 0.108 2.828 0.42 5.675 1.94 8.014 4.28s3.86 5.186 4.28 8.014c0.058 0.384 0.093 0.772 0.107 1.16-3.662-0.252-6.915-1.823-9.325-4.237l-0-0zM16.387 30.596c-0.015-0.506-0.059-0.987-0.131-1.459l0.008 0.065c-0.464-3.121-2.123-6.244-4.673-8.794s-5.673-4.209-8.794-4.672c-0.464-0.069-0.932-0.111-1.401-0.124 0.013-0.507 0.050-0.988 0.109-1.462l-0.007 0.072c0.496 0.016 0.999 0.062 1.504 0.137 3.415 0.507 6.814 2.306 9.573 5.065s4.558 6.159 5.065 9.573c0.068 0.433 0.117 0.949 0.136 1.473l0.001 0.023c-0.402 0.052-0.883 0.089-1.37 0.102l-0.020 0zM26.33 26.33c-1.908 1.912-4.345 3.295-7.073 3.911l-0.097 0.018c-0.027-0.546-0.078-1.051-0.154-1.547l0.010 0.082c-0.55-3.708-2.489-7.385-5.457-10.353s-6.645-4.907-10.352-5.458c-0.417-0.066-0.923-0.118-1.437-0.143l-0.034-0.001-0.004 0.003c0.591-2.697 1.939-5.173 3.938-7.173 1.827-1.831 4.14-3.177 6.729-3.828l0.1-0.021c0.019 0.624 0.074 1.217 0.163 1.799l-0.010-0.081c0.551 3.708 2.489 7.385 5.458 10.353s6.645 4.907 10.352 5.458c0.571 0.085 1.147 0.136 1.723 0.153l0.006-0.011c-0.627 2.567-1.944 4.923-3.861 6.839zM30.458 18.115c-0.588-0.006-1.188-0.053-1.791-0.143-3.414-0.507-6.814-2.306-9.573-5.065s-4.557-6.159-5.065-9.573c-0.084-0.53-0.136-1.147-0.143-1.775l-0-0.008c0.462-0.067 0.926-0.112 1.393-0.135 0 0.002 0 0.005 0 0.007 0 0.602 0.046 1.193 0.135 1.771l-0.008-0.064c0.464 3.121 2.123 6.244 4.673 8.794 0.125 0.119 0.294 0.192 0.48 0.192 0.384 0 0.696-0.312 0.696-0.696 0-0.186-0.073-0.355-0.192-0.48l0 0c-2.34-2.34-3.86-5.186-4.28-8.014-0.072-0.454-0.113-0.977-0.113-1.51 0-0 0-0.001 0-0.001v0c3.515 0.159 6.984 1.578 9.662 4.256 2.601 2.602 4.1 6.011 4.263 9.662-0.001 0-0.003 0-0.005 0-0.534 0-1.058-0.041-1.57-0.12l0.057 0.007c-0.023-0.003-0.050-0.004-0.077-0.004-0.384 0-0.696 0.312-0.696 0.696 0 0.339 0.243 0.622 0.564 0.684l0.004 0.001c0.574 0.085 1.141 0.128 1.693 0.128h0.027c-0.026 0.521-0.073 1-0.143 1.473l0.010-0.081z"></path>
        <path fill="#f1cdb3" d="M24.614 13.747c-0.384 0.001-0.695 0.312-0.696 0.695v0c0.001 0.384 0.312 0.695 0.696 0.696h0c0.183 0 0.363-0.075 0.492-0.204 0.13-0.131 0.203-0.307 0.204-0.492 0-0.183-0.075-0.363-0.204-0.492-0.126-0.126-0.3-0.203-0.492-0.204h-0z"></path>
    </symbol>
    <symbol id="icon-transportation" viewBox="0 0 33 32">
        <path fill="#f1cdb3" d="M29.869 6.779h-3.746v-0.108c-0.002-1.94-1.574-3.511-3.513-3.514h-0c-1.94 0.002-3.511 1.574-3.514 3.513v0.108h-4.399c-1.45 0.002-2.625 1.177-2.627 2.627v2.967h-3.939c-0.002 0-0.004 0-0.005 0-0.97 0-1.799 0.604-2.132 1.457l-0.005 0.016-2.271 6.884c-0.020 0.012-0.046 0.026-0.073 0.039l-0.007 0.003c-0.13 0.065-0.373 0.164-0.791 0.267-1.344 0.334-2.325 1.53-2.325 2.955 0 0.002 0 0.004 0 0.006v-0 3.253c0.001 1.090 0.885 1.974 1.975 1.975h2.786c0.294 1.575 1.678 2.772 3.339 2.772 1.659 0 3.044-1.197 3.338-2.772h9.826c0.295 1.575 1.679 2.772 3.339 2.772s3.044-1.196 3.338-2.772h1.77c1.355 0 2.264-0.91 2.264-2.265v-16.254c0-3.547-1.837-3.93-2.627-3.93zM20.347 6.672c0.002-1.249 1.014-2.262 2.263-2.263h0c1.25 0.002 2.262 1.014 2.264 2.263v0.108h-4.528v-0.108zM7.168 14.26c0.162-0.377 0.531-0.636 0.959-0.636 0.001 0 0.002 0 0.003 0h3.939v7.084h-7.030l2.129-6.448zM8.62 30.75c-1.185-0.002-2.145-0.962-2.147-2.147v-0l0.001-0.044c0-0.022 0-0.045 0.002-0.067l0.001-0.011c0.067-1.132 1.001-2.024 2.143-2.026h0c1.031 0.001 1.892 0.728 2.1 1.697l0.003 0.014 0.001 0.004c0.006 0.033 0.013 0.066 0.018 0.1l0.001 0.005 0.010 0.074 0.004 0.034 0.004 0.059c0.001 0.017 0.003 0.034 0.004 0.050 0.001 0.018 0.001 0.036 0.002 0.053 0 0.019 0.002 0.038 0.002 0.058-0.002 1.185-0.962 2.145-2.147 2.147h-0zM25.123 30.75c-1.186-0.002-2.147-0.963-2.147-2.149 0-0.029 0.001-0.057 0.002-0.085l-0 0.004 0.001-0.027c0.001-0.021 0.003-0.041 0.005-0.061l0.003-0.048 0.003-0.020c0.007-0.065 0.017-0.13 0.030-0.193l0.001-0.005c0.211-0.982 1.072-1.708 2.102-1.709h0c1.185 0.002 2.145 0.962 2.147 2.147v0c-0.002 1.185-0.962 2.145-2.147 2.147h-0zM30.231 27.978h-1.769c-0.002-0.011-0.005-0.022-0.007-0.033-0.026-0.131-0.053-0.236-0.085-0.34l0.007 0.026-0.018-0.059c-0.017-0.056-0.029-0.088-0.040-0.12l0.007 0.023-0.019-0.052c-0.022-0.060-0.037-0.096-0.052-0.133l0.008 0.022-0.014-0.035c-0.030-0.070-0.052-0.118-0.075-0.164l0.009 0.020-0.009-0.018c-0.029-0.060-0.050-0.1-0.071-0.139l0.009 0.018-0.025-0.044c-0.026-0.047-0.044-0.077-0.062-0.106l0.008 0.015-0.030-0.049c-0.062-0.101-0.121-0.185-0.184-0.267l0.005 0.007c-0.025-0.033-0.045-0.058-0.065-0.082l0.005 0.006-0.036-0.045c-0.026-0.031-0.048-0.056-0.071-0.081l0.003 0.003-0.034-0.038c-0.030-0.033-0.059-0.063-0.088-0.093l0 0-0.019-0.020c-0.036-0.036-0.073-0.071-0.11-0.105l-0.003-0.002-0.025-0.022c-0.030-0.027-0.060-0.053-0.092-0.080-0.013-0.011-0.028-0.021-0.042-0.033-0.026-0.021-0.053-0.042-0.080-0.062l-0.048-0.036c-0.099-0.074-0.212-0.147-0.329-0.213l-0.016-0.009c-0.018-0.010-0.035-0.020-0.052-0.029-0.012-0.008-0.043-0.024-0.074-0.039l-0.019-0.009c-0.016-0.007-0.031-0.016-0.046-0.023-0.020-0.010-0.060-0.029-0.101-0.047l-0.022-0.009-0.019-0.009c-0.026-0.012-0.074-0.032-0.123-0.050l-0.023-0.008-0.043-0.015c-0.010-0.005-0.045-0.017-0.081-0.029l-0.026-0.007-0.057-0.017c-0.008-0.003-0.040-0.013-0.072-0.022l-0.024-0.006-0.062-0.016c-0.061-0.016-0.147-0.034-0.233-0.049l-0.019-0.003-0.066-0.011c-0.015-0.003-0.049-0.007-0.083-0.011l-0.016-0.001c-0.021-0.002-0.042-0.005-0.063-0.007-0.024-0.003-0.062-0.006-0.1-0.008l-0.010-0-0.053-0.004c-0.049-0.003-0.107-0.004-0.165-0.004s-0.116 0.001-0.173 0.004l0.008-0-0.054 0.004-0.11 0.009-0.063 0.007c-0.128 0.015-0.239 0.034-0.347 0.058l0.023-0.004c-0.107 0.023-0.191 0.045-0.274 0.070l0.023-0.006c-0.019 0.006-0.039 0.011-0.058 0.018-0.058 0.018-0.093 0.030-0.128 0.043l0.023-0.007-0.045 0.016c-0.049 0.018-0.098 0.037-0.146 0.057l-0.023 0.011c-0.040 0.018-0.080 0.035-0.119 0.054l-0.049 0.025c-0.051 0.025-0.080 0.040-0.109 0.056l0.019-0.010-0.054 0.030c-0.107 0.061-0.195 0.116-0.279 0.174l0.012-0.008c-0.035 0.024-0.059 0.042-0.083 0.059l0.009-0.006-0.051 0.037c-0.033 0.025-0.058 0.045-0.082 0.065l0.006-0.005-0.045 0.036c-0.034 0.028-0.061 0.053-0.089 0.077l0.003-0.003-0.031 0.027c-0.037 0.035-0.075 0.070-0.111 0.107l-0.027 0.028c-0.027 0.028-0.053 0.055-0.080 0.084l-0.038 0.043c-0.021 0.024-0.043 0.048-0.063 0.073l-0.039 0.049c-0.078 0.097-0.156 0.204-0.227 0.317l-0.008 0.014-0.034 0.053c-0.009 0.013-0.025 0.041-0.040 0.069l-0.008 0.016-0.028 0.050c-0.019 0.036-0.037 0.072-0.055 0.108l-0.016 0.030c-0.014 0.026-0.035 0.073-0.056 0.12l-0.008 0.022-0.018 0.044c-0.006 0.012-0.019 0.045-0.032 0.079l-0.008 0.023c-0.007 0.019-0.014 0.039-0.020 0.058l-0.031 0.091-0.019 0.063c-0.025 0.079-0.052 0.184-0.074 0.291l-0.004 0.021c-0.002 0.011-0.004 0.021-0.006 0.031h-9.824l-0.007-0.033-0.013-0.064c-0.023-0.107-0.045-0.19-0.070-0.272l0.006 0.024c-0.006-0.020-0.012-0.041-0.019-0.061-0.017-0.055-0.028-0.087-0.040-0.117l0.008 0.024-0.019-0.056c-0.021-0.056-0.034-0.090-0.049-0.124l0.008 0.020c-0.005-0.014-0.011-0.028-0.017-0.043-0.029-0.069-0.050-0.116-0.073-0.162l0.009 0.020-0.014-0.028c-0.019-0.037-0.037-0.075-0.057-0.111l-0.028-0.049c-0.024-0.045-0.041-0.073-0.058-0.101l0.008 0.014-0.033-0.053c-0.079-0.126-0.156-0.234-0.24-0.337l0.005 0.006-0.041-0.049c-0.025-0.030-0.045-0.053-0.066-0.077l0.003 0.004-0.039-0.044c-0.027-0.030-0.053-0.056-0.079-0.083l0 0c-0.009-0.010-0.018-0.020-0.028-0.029-0.035-0.035-0.072-0.070-0.108-0.104l-0.002-0.002-0.032-0.028c-0.024-0.021-0.052-0.045-0.080-0.069l-0.051-0.042c-0.018-0.015-0.043-0.034-0.067-0.053l-0.008-0.006c-0.089-0.068-0.191-0.137-0.296-0.202l-0.016-0.009c-0.027-0.016-0.053-0.032-0.081-0.047l-0.055-0.030c-0.013-0.008-0.042-0.023-0.071-0.038l-0.018-0.008-0.050-0.025c-0.018-0.010-0.056-0.027-0.095-0.045l-0.022-0.009-0.025-0.011c-0.026-0.012-0.074-0.032-0.122-0.050l-0.023-0.008-0.046-0.016c-0.010-0.005-0.044-0.017-0.079-0.028l-0.025-0.007-0.059-0.018c-0.11-0.035-0.248-0.067-0.389-0.092l-0.020-0.003-0.066-0.011c-0.015-0.003-0.049-0.007-0.083-0.011l-0.016-0.001c-0.021-0.002-0.042-0.005-0.063-0.007-0.023-0.003-0.061-0.006-0.099-0.008l-0.011-0.001-0.053-0.004c-0.049-0.003-0.107-0.004-0.165-0.004s-0.116 0.001-0.173 0.004l0.008-0-0.054 0.004-0.11 0.009-0.063 0.007c-0.050 0.006-0.084 0.010-0.117 0.015l0.019-0.002-0.066 0.011c-0.106 0.017-0.191 0.035-0.274 0.056l0.023-0.005-0.064 0.016c-0.055 0.014-0.086 0.023-0.117 0.033l0.023-0.006-0.059 0.018c-0.035 0.011-0.069 0.023-0.102 0.035l-0.047 0.016c-0.049 0.019-0.097 0.037-0.145 0.058l-0.029 0.013c-0.060 0.025-0.097 0.043-0.134 0.061l0.021-0.009c-0.066 0.031-0.111 0.055-0.156 0.080l0.017-0.009c-0.152 0.081-0.282 0.164-0.405 0.255l0.008-0.006c-0.018 0.013-0.036 0.026-0.053 0.039-0.032 0.024-0.056 0.043-0.079 0.063l0.006-0.005c-0.016 0.013-0.033 0.026-0.048 0.039-0.028 0.022-0.054 0.045-0.080 0.069l-0.037 0.032c-0.037 0.034-0.074 0.069-0.11 0.105l-0.033 0.034c-0.024 0.024-0.048 0.050-0.072 0.075l-0.002 0.002-0.041 0.047c-0.018 0.020-0.038 0.042-0.057 0.065l-0.004 0.004-0.042 0.052c-0.078 0.096-0.155 0.202-0.225 0.313l-0.008 0.013-0.035 0.057c-0.016 0.027-0.031 0.054-0.047 0.082l-0.030 0.053c-0.008 0.014-0.026 0.048-0.043 0.082l-0.009 0.021-0.019 0.036c-0.013 0.026-0.035 0.072-0.055 0.119l-0.009 0.022-0.019 0.049c-0.013 0.032-0.027 0.065-0.038 0.097l-0.021 0.060c-0.011 0.030-0.021 0.059-0.030 0.089l-0.020 0.065c-0.018 0.056-0.040 0.138-0.059 0.221l-0.004 0.023c-0.005 0.022-0.010 0.045-0.014 0.068l-0.006 0.030h-2.785c-0.4 0-0.725-0.325-0.725-0.725v-3.252c0-0.001 0-0.002 0-0.003 0-0.841 0.578-1.546 1.359-1.741l0.012-0.003c0.356-0.087 0.662-0.186 0.912-0.296h22.7c0.337-0.010 0.607-0.286 0.607-0.625s-0.27-0.615-0.606-0.625l-0.001-0h-13.433v-11.301c0.001-0.76 0.616-1.376 1.376-1.377h15.172c1.198 0 1.377 1.679 1.377 2.68v16.254c0 0.883-0.636 1.014-1.014 1.014z"></path>
        <path fill="#f1cdb3" d="M27.433 13.235c-0.001-0.818-0.57-1.502-1.333-1.68l-0.012-0.002c0.006-0.055 0.009-0.119 0.009-0.184 0-0.51-0.204-0.971-0.536-1.308l0 0c-0.356-0.364-0.851-0.59-1.4-0.591h-0c-0.634 0.001-1.195 0.306-1.547 0.778l-0.004 0.005c-0.356-0.477-0.919-0.783-1.553-0.783h-0c-0.519 0-1.026 0.212-1.39 0.583-0.337 0.34-0.545 0.808-0.545 1.325 0 0.062 0.003 0.122 0.009 0.182l-0.001-0.008c-0.774 0.181-1.343 0.865-1.344 1.681v0c0 0.694 0.412 1.293 1.005 1.566-0.411 0.504-0.66 1.153-0.661 1.861v0c0 1.632 1.328 2.96 2.96 2.96 0 0 0 0 0 0 0.561 0 1.086-0.156 1.533-0.427l-0.013 0.007c0.434 0.264 0.958 0.42 1.519 0.42h0c1.632 0 2.96-1.328 2.96-2.96-0.001-0.708-0.25-1.358-0.666-1.867l0.004 0.005c0.598-0.279 1.005-0.875 1.005-1.566v-0zM24.162 10.72c0.189 0 0.373 0.077 0.504 0.212 0.122 0.125 0.186 0.287 0.181 0.455-0.011 0.383-0.321 0.699-0.692 0.702-0.1 0-0.197-0.021-0.288-0.062l-0.034-0.016c-0.214-0.118-0.356-0.342-0.356-0.599 0-0.002 0-0.004 0-0.005v0c0.002-0.379 0.309-0.688 0.685-0.688zM20.56 10.929c0.126-0.129 0.301-0.209 0.495-0.209 0.001 0 0.002 0 0.002 0h-0c0 0 0 0 0 0 0.379 0 0.686 0.307 0.686 0.686 0 0.097-0.020 0.189-0.056 0.273l0.002-0.004c-0.062 0.145-0.168 0.262-0.3 0.336l-0.003 0.002-0.061 0.029c-0.073 0.031-0.159 0.049-0.248 0.049-0.003 0-0.006-0-0.009-0h0c-0.38-0.010-0.686-0.317-0.695-0.696l-0-0.001c-0-0.003-0-0.007-0-0.010 0-0.177 0.072-0.337 0.188-0.454v0zM19.036 13.235c0.012-0.252 0.22-0.452 0.474-0.452s0.462 0.2 0.474 0.451l0 0.001c0 0.053-0.010 0.105-0.026 0.153-0.008 0.014-0.023 0.046-0.037 0.077l-0.007 0.018c-0.085 0.136-0.234 0.225-0.403 0.225-0.262 0-0.474-0.212-0.474-0.473v-0zM24.129 18.373c-0.426-0-0.816-0.156-1.115-0.414l0.002 0.002c-0.109-0.094-0.251-0.151-0.407-0.151s-0.298 0.057-0.408 0.152l0.001-0.001c-0.297 0.256-0.687 0.412-1.113 0.412-0.944 0-1.709-0.765-1.709-1.709 0-0 0-0.001 0-0.001v0c0-0.715 0.451-1.361 1.122-1.606 0.221-0.083 0.381-0.282 0.406-0.521l0-0.003c0.018-0.172 0.061-0.34 0.129-0.499 0.022-0.043 0.043-0.085 0.062-0.13 0.292-0.543 0.856-0.905 1.504-0.905 0.002 0 0.004 0 0.006 0h-0c0.001 0 0.002 0 0.003 0 0.279 0 0.542 0.067 0.775 0.185l-0.010-0.005c0.317 0.158 0.576 0.412 0.742 0.725 0.019 0.044 0.039 0.087 0.062 0.13 0.068 0.159 0.111 0.327 0.129 0.499 0.025 0.241 0.185 0.44 0.402 0.521l0.004 0.001c0.659 0.249 1.12 0.874 1.122 1.607v0c-0.001 0.944-0.766 1.709-1.71 1.71h-0zM25.709 13.709c-0.17-0-0.318-0.089-0.402-0.224l-0.001-0.002c-0.022-0.050-0.037-0.082-0.053-0.113l0.008 0.017c-0.016-0.046-0.026-0.099-0.026-0.154 0-0.261 0.212-0.473 0.473-0.473 0 0 0.001 0 0.001 0h-0c0.252 0.012 0.452 0.22 0.452 0.474s-0.2 0.462-0.451 0.474l-0.001 0zM29.877 21.214c-0.061-0.287-0.312-0.499-0.612-0.499-0.344 0-0.623 0.277-0.625 0.621v0c0.001 0.258 0.158 0.48 0.381 0.576l0.004 0.002c0.071 0.031 0.154 0.049 0.241 0.049 0.129 0 0.249-0.040 0.347-0.108l-0.002 0.001c0.101-0.069 0.18-0.165 0.228-0.276l0.002-0.004c0.029-0.071 0.047-0.153 0.048-0.239v-0c-0-0.043-0.005-0.085-0.013-0.126l0.001 0.004zM22.61 0c-0.345 0-0.625 0.28-0.625 0.625v1.046c0 0.345 0.28 0.625 0.625 0.625s0.625-0.28 0.625-0.625v0-1.046c0-0.345-0.28-0.625-0.625-0.625zM19.977 2.43l-0.873-0.685c-0.105-0.083-0.24-0.133-0.386-0.133-0.345 0-0.625 0.28-0.625 0.625 0 0.199 0.093 0.376 0.238 0.491l0.001 0.001 0.873 0.685c0.105 0.084 0.24 0.134 0.386 0.134 0.099 0 0.193-0.023 0.277-0.065l-0.004 0.002c0.21-0.103 0.353-0.316 0.353-0.562 0-0.199-0.093-0.377-0.239-0.491l-0.001-0.001zM26.993 1.851c-0.115-0.146-0.293-0.239-0.491-0.239-0.146 0-0.281 0.050-0.387 0.134l0.001-0.001-0.873 0.685c-0.146 0.115-0.239 0.293-0.239 0.492 0 0.345 0.28 0.625 0.625 0.625 0.146 0 0.281-0.050 0.387-0.135l-0.001 0.001 0.872-0.685c0.272-0.213 0.319-0.606 0.106-0.878z"></path>
    </symbol>
    <symbol id="icon-vitamins" viewBox="0 0 32 32">
        <path fill="#f1cdb3" d="M28.965 18.879c-1.746-0.595-4.056-0.922-6.503-0.922-0.153 0-0.306 0.001-0.457 0.004-2.277 0.038-4.41 0.361-6.047 0.918-0.263 0.089-0.522 0.188-0.777 0.299v-9.988c0-4.185-3.405-7.59-7.59-7.59s-7.591 3.405-7.591 7.591v13.703c0 4.186 3.405 7.591 7.59 7.591 1.328 0 2.635-0.348 3.78-1.006 0.741-0.432 1.374-0.954 1.912-1.563l0.007-0.008c0.398 0.56 1.188 1.152 2.669 1.655 1.747 0.595 4.057 0.922 6.504 0.922s4.757-0.327 6.504-0.922c2.508-0.854 3.034-1.959 3.034-2.737v-5.211c0-0.777-0.526-1.883-3.035-2.736zM14.173 21.615c0-0.023 0.003-0.046 0.006-0.069l0.001-0.005c0.021-0.114 0.089-0.245 0.214-0.387l0.002-0.003c0.019-0.021 0.040-0.043 0.061-0.065 0.014-0.014 0.029-0.029 0.044-0.044l0.018-0.017c0.112-0.102 0.235-0.197 0.365-0.281l0.011-0.007 0.007-0.005c0.342-0.222 0.817-0.452 1.456-0.67 1.62-0.551 3.787-0.855 6.101-0.855 2.108 0 4.093 0.253 5.655 0.715l-13.376 2.465c-0.401-0.296-0.566-0.57-0.567-0.77v-0.001zM13.931 19.888c-0.482 0.37-0.75 0.745-0.886 1.092-0.063 0.157-0.105 0.338-0.118 0.528l-0 0.005-0.001 0.016c-0.002 0.025-0.002 0.056-0.003 0.086v4.71c-1.136 1.76-3.088 2.909-5.308 2.909-0.009 0-0.017-0-0.026-0h0.001c-3.496 0-6.34-2.844-6.34-6.341v-6.227h1.25v3.375c0.010 0.337 0.286 0.607 0.625 0.607s0.615-0.27 0.625-0.606l0-0.001v-3.375h10.181v3.221zM13.931 15.417h-10.181v-6.226c0-2.118 1.723-3.841 3.841-3.841 2.117 0 3.84 1.723 3.84 3.841 0 0.345 0.28 0.625 0.625 0.625s0.625-0.28 0.625-0.625v0c0-2.807-2.284-5.091-5.091-5.091s-5.091 2.284-5.091 5.091v6.226h-1.249v-6.226c0-3.497 2.844-6.341 6.341-6.341s6.34 2.845 6.34 6.341v6.226zM30.75 26.827c0 0.373-0.573 1.004-2.187 1.554-1.621 0.551-3.787 0.855-6.101 0.855s-4.481-0.304-6.101-0.855c-1.614-0.549-2.187-1.18-2.187-1.554v-3.31c0.437 0.291 1.018 0.576 1.784 0.836 1.747 0.595 4.057 0.922 6.504 0.922s4.757-0.327 6.504-0.922c0.766-0.261 1.347-0.545 1.784-0.836v3.31zM28.563 23.17c-1.621 0.551-3.787 0.855-6.101 0.855-2.139 0-4.151-0.26-5.723-0.734l13.407-2.471c0.428 0.306 0.603 0.591 0.603 0.797 0 0.373-0.573 1.004-2.187 1.553z"></path>
        <path fill="#f1cdb3" d="M3.567 22.081c-0.056-0.057-0.124-0.103-0.199-0.134l-0.004-0.001c-0.071-0.030-0.153-0.047-0.24-0.047-0.043 0-0.084 0.004-0.125 0.012l0.004-0.001c-0.085 0.018-0.161 0.050-0.227 0.095l0.002-0.002c-0.069 0.046-0.127 0.103-0.171 0.17l-0.001 0.002c-0.021 0.031-0.041 0.067-0.056 0.104l-0.001 0.004c-0.031 0.071-0.049 0.153-0.049 0.239s0.018 0.169 0.050 0.243l-0.002-0.004c0.033 0.079 0.078 0.146 0.135 0.203v0c0.114 0.112 0.269 0.182 0.441 0.182h0c0.001 0 0.002 0 0.003 0 0.128 0 0.248-0.039 0.346-0.106l-0.002 0.001c0.069-0.046 0.126-0.104 0.171-0.17l0.001-0.002c0.043-0.064 0.075-0.14 0.093-0.221l0.001-0.004c0.007-0.036 0.012-0.078 0.012-0.121 0-0.173-0.070-0.33-0.183-0.444l0 0z"></path>
    </symbol>
    <symbol id="icon-credit-card" viewBox="0 0 42 32">
        <path d="M36.149 32h-30.559c-3.082 0-5.59-2.497-5.59-5.565v-20.87c0-3.069 2.509-5.565 5.593-5.565h30.553c3.085 0 5.593 2.496 5.593 5.565v20.87c0 3.068-2.509 5.565-5.59 5.565zM5.59 1.59c-0.001 0-0.002 0-0.003 0-2.198 0-3.98 1.778-3.987 3.974v20.87c0.008 2.197 1.791 3.975 3.989 3.975 0.001 0 0.003 0 0.004 0h30.556c0 0 0.001 0 0.001 0 2.198 0 3.981-1.778 3.989-3.974v-20.87c-0.008-2.197-1.791-3.975-3.989-3.975-0.001 0-0.003 0-0.004 0h-30.554zM28.806 4.675c0.002 0 0.005 0 0.008 0 1.986 0 3.596 1.607 3.601 3.592v0c-0.005 1.985-1.615 3.592-3.601 3.592-0.003 0-0.006 0-0.009 0h0c-0.002 0-0.005 0-0.008 0-1.986 0-3.596-1.607-3.601-3.592v-0c0.005-1.985 1.615-3.592 3.601-3.592 0.003 0 0.006 0 0.009 0h-0zM33.837 4.675c0.003 0 0.006 0 0.010 0 1.986 0 3.596 1.607 3.601 3.592v0c-0.005 1.985-1.615 3.592-3.601 3.592-0.003 0-0.007 0-0.010 0h0.001c-0.002 0-0.005 0-0.008 0-1.986 0-3.596-1.607-3.601-3.592v-0c0.005-1.985 1.615-3.592 3.601-3.592 0.003 0 0.006 0 0.009 0h-0zM4.294 22.726h6.653v2.385h-6.653v-2.385zM13.127 22.726h6.653v2.385h-6.653v-2.385zM21.958 22.726h6.656v2.385h-6.656v-2.385zM30.791 22.726h6.655v2.385h-6.656v-2.385zM4.292 4.675h12.577v2.386h-12.577v-2.386zM4.292 9.408h6.657v2.385h-6.656v-2.385z"></path>
    </symbol>
</defs>
</svg>
